<?xml version="1.0" encoding="UTF-8"?>
<!DOCTYPE svg PUBLIC "-//W3C//DTD SVG 1.0//EN" "http://www.w3.org/TR/2001/REC-SVG-20010904/DTD/svg10.dtd">
<!-- Creator: CorelDRAW (Evaluation Version) -->
<svg xmlns="http://www.w3.org/2000/svg" xml:space="preserve" width="210mm" height="297mm" version="1.0" style="shape-rendering:geometricPrecision; text-rendering:geometricPrecision; image-rendering:optimizeQuality; fill-rule:evenodd; clip-rule:evenodd"
viewBox="0 0 21000 29700"
 xmlns:xlink="http://www.w3.org/1999/xlink">
 <defs>
  <style type="text/css">
   <![CDATA[
    .str0 {stroke:white;stroke-width:26.46;stroke-miterlimit:22.9256}
    .str1 {stroke:#292929;stroke-width:26.46;stroke-miterlimit:22.9256}
    .str3 {stroke:white;stroke-width:35.28;stroke-miterlimit:22.9256}
    .str2 {stroke:#292929;stroke-width:17.64;stroke-miterlimit:22.9256}
    .fil3 {fill:none}
    .fil2 {fill:none}
    .fil0 {fill:#292929}
    .fil4 {fill:#373535;fill-rule:nonzero}
    .fil5 {fill:#FFFCFC;fill-rule:nonzero}
    .fil6 {fill:#FDFCFC;fill-rule:nonzero}
    .fil1 {fill:white;fill-opacity:0.949020}
   ]]>
  </style>
    <clipPath id="id0">
     <path d="M6914.4 244.8c3625.94,0 6565.35,2939.41 6565.35,6565.35 0,3625.94 -2939.41,6565.35 -6565.35,6565.35 -3625.94,0 -6565.35,-2939.41 -6565.35,-6565.35 0,-3625.94 2939.41,-6565.35 6565.35,-6565.35z"/>
    </clipPath>
 </defs>
 <g id="Layer_x0020_1">
  <metadata id="CorelCorpID_0Corel-Layer"/>
  <g id="_105828239754464">
   <path class="fil0" d="M6914.4 244.8c3625.94,0 6565.35,2939.41 6565.35,6565.35 0,3625.94 -2939.41,6565.35 -6565.35,6565.35 -3625.94,0 -6565.35,-2939.41 -6565.35,-6565.35 0,-3625.94 2939.41,-6565.35 6565.35,-6565.35z"/>
   <g style="clip-path:url(#id0)">
    <g>
     <g>
      <path id="1" class="fil1" d="M6042.73 5062.02c-167.44,280.21 -148.61,647.04 73.02,911.18 279.86,333.52 777.1,377.03 1110.62,97.17 333.52,-279.86 377.02,-777.1 97.17,-1110.62 -52.8,-62.92 -113.34,-115.52 -179.05,-157.57m2132.82 3706.95c333.53,-279.86 377.03,-777.1 97.17,-1110.62 -279.86,-333.52 -777.1,-377.02 -1110.62,-97.16 -333.52,279.85 -377.02,777.09 -97.17,1110.62 279.86,333.52 777.1,377.02 1110.62,97.16zm-914.66 -2365.41c279.86,333.52 777.1,377.03 1110.62,97.17 333.52,-279.86 377.02,-777.1 97.17,-1110.62 -279.86,-333.52 -777.1,-377.03 -1110.62,-97.17 -333.53,279.86 -377.03,777.1 -97.17,1110.62zm-2438.76 2050.95c279.86,333.52 777.1,377.02 1110.62,97.16 333.52,-279.86 377.02,-777.09 97.16,-1110.61 -279.86,-333.53 -777.09,-377.03 -1110.61,-97.17 -333.52,279.86 -377.03,777.09 -97.17,1110.62zm1891.68 -2334.23c433.73,37.95 816.09,-282.9 854.04,-716.62 37.94,-433.73 -282.9,-816.09 -716.62,-854.03 -433.73,-37.95 -816.1,282.89 -854.04,716.62 -37.94,433.72 282.9,816.09 716.62,854.03zm-274.23 3174.7c433.73,37.95 816.09,-282.89 854.04,-716.62 37.94,-433.72 -282.9,-816.08 -716.62,-854.02 -433.74,-37.95 -816.09,282.89 -854.04,716.61 -37.94,433.72 282.9,816.09 716.62,854.03zm-596.2 -2441.09c37.95,-433.72 -282.89,-816.09 -716.62,-854.03 -433.73,-37.95 -816.09,282.89 -854.04,716.62 -37.94,433.72 282.9,816.09 716.63,854.04 433.72,37.94 816.08,-282.9 854.03,-716.63zm3174.7 274.23c37.95,-433.72 -282.89,-816.08 -716.62,-854.03 -433.72,-37.95 -816.09,282.89 -854.03,716.61 -37.94,433.73 282.9,816.1 716.62,854.04 433.72,37.95 816.09,-282.89 854.03,-716.62z"/>
      <path class="fil1" d="M7199.29 4684.53c144.66,18.51 285.91,77.34 405.93,178.05 333.52,279.85 377.02,777.1 97.16,1110.62 -279.85,333.53 -777.1,377.03 -1110.62,97.17 -265.68,-222.94 -347.32,-583.82 -228.08,-889.99m-1822.86 3328.75c-333.52,-279.86 -377.03,-777.1 -97.17,-1110.62 279.86,-333.52 777.1,-377.02 1110.62,-97.16 333.52,279.85 377.03,777.09 97.17,1110.62 -279.86,333.52 -777.1,377.02 -1110.62,97.16zm914.66 -2365.41c-279.86,333.52 -777.1,377.03 -1110.62,97.17 -333.52,-279.86 -377.02,-777.1 -97.16,-1110.62 279.85,-333.52 777.09,-377.03 1110.62,-97.17 333.52,279.86 377.02,777.1 97.16,1110.62zm2438.76 2050.95c-279.85,333.52 -777.09,377.02 -1110.62,97.16 -333.52,-279.86 -377.02,-777.09 -97.16,-1110.61 279.86,-333.53 777.1,-377.03 1110.61,-97.17 333.53,279.86 377.03,777.09 97.17,1110.62zm-1172.13 -3132.31c7.06,410.18 -304.58,761.78 -719.55,798.08 -433.73,37.95 -816.09,-282.9 -854.04,-716.62 -37.94,-433.73 282.9,-816.09 716.63,-854.03 119.55,-10.46 235.2,6.34 340.8,45.24m70.84 4700.11c-433.73,37.95 -816.09,-282.89 -854.04,-716.62 -37.94,-433.72 282.9,-816.08 716.62,-854.02 433.74,-37.95 816.09,282.89 854.04,716.61 37.95,433.72 -282.9,816.09 -716.62,854.03zm596.2 -2441.09c-37.94,-433.72 282.9,-816.09 716.62,-854.03 433.73,-37.95 816.09,282.89 854.04,716.62 37.94,433.72 -282.9,816.09 -716.62,854.04 -433.73,37.94 -816.09,-282.9 -854.04,-716.63zm-3174.7 274.23c-37.95,-433.72 282.89,-816.08 716.62,-854.03 433.73,-37.95 816.09,282.89 854.03,716.61 37.95,433.73 -282.89,816.1 -716.62,854.04 -433.72,37.95 -816.09,-282.89 -854.03,-716.62z"/>
      <path class="fil1" d="M6681.6 6037.67c75.6,-428.76 -210.7,-837.63 -639.46,-913.24 -428.77,-75.6 -837.64,210.69 -913.25,639.46 -75.6,428.77 210.7,837.64 639.46,913.24 428.77,75.61 837.64,-210.69 913.25,-639.46zm3138.72 549.88c75.6,-428.77 -210.69,-837.64 -639.46,-913.24 -428.77,-75.6 -837.64,210.69 -913.24,639.46 -75.61,428.77 210.69,837.64 639.45,913.24 428.77,75.6 837.64,-210.69 913.25,-639.46zm-2772.63 -1616.21c111.58,199.63 308.7,349.32 551.5,392.13 428.76,75.61 837.64,-210.68 913.24,-639.45 75.61,-428.77 -210.69,-837.64 -639.46,-913.24 -419.06,-73.9 -819.12,197.91 -907.6,610.55m83.94 4080.87c428.76,75.6 837.64,-210.69 913.24,-639.46 75.6,-428.77 -210.69,-837.64 -639.46,-913.24 -428.77,-75.6 -837.64,210.69 -913.24,639.46 -75.6,428.76 210.69,837.63 639.46,913.24zm-51.3 -3004.08c356.65,-249.72 443.32,-741.28 193.6,-1097.92 -249.73,-356.64 -741.29,-443.32 -1097.93,-193.59 -356.65,249.73 -443.32,741.28 -193.6,1097.93 249.73,356.63 741.29,443.31 1097.93,193.58zm1830.59 2608.24c356.64,-249.73 443.32,-741.28 193.59,-1097.93 -249.72,-356.64 -741.27,-443.31 -1097.92,-193.58 -356.65,249.72 -443.32,741.28 -193.6,1097.92 249.73,356.64 741.28,443.32 1097.93,193.59zm-2025.82 -1486.75c-249.73,-356.65 -741.28,-443.32 -1097.93,-193.6 -356.64,249.73 -443.32,741.29 -193.59,1097.93 249.72,356.64 741.28,443.32 1097.93,193.6 356.64,-249.73 443.31,-741.29 193.59,-1097.93zm2608.23 -1830.59c-249.72,-356.64 -741.28,-443.32 -1097.93,-193.59 -356.64,249.72 -443.31,741.28 -193.59,1097.92 249.73,356.64 741.29,443.32 1097.93,193.6 356.64,-249.73 443.32,-741.29 193.59,-1097.93z"/>
      <path class="fil1" d="M7136.54 6037.67c-75.61,-428.76 210.69,-837.63 639.45,-913.24 428.77,-75.6 837.64,210.69 913.25,639.46 75.6,428.77 -210.69,837.64 -639.46,913.24 -428.77,75.61 -837.64,-210.69 -913.24,-639.46zm-3138.73 549.88c-75.6,-428.77 210.7,-837.64 639.46,-913.24 428.77,-75.6 837.64,210.69 913.25,639.46 75.6,428.77 -210.7,837.64 -639.46,913.24 -428.77,75.6 -837.64,-210.69 -913.25,-639.46zm2713.9 -1526.08c-115.87,153.88 -288.09,265.91 -492.76,302 -428.77,75.61 -837.65,-210.68 -913.25,-639.45 -75.6,-428.77 210.7,-837.64 639.46,-913.24 419.06,-73.9 819.12,197.91 907.61,610.55m-83.95 4080.87c-428.76,75.6 -837.63,-210.69 -913.24,-639.46 -75.6,-428.77 210.7,-837.64 639.46,-913.24 428.77,-75.6 837.64,210.69 913.24,639.46 75.6,428.76 -210.69,837.63 -639.46,913.24zm-159.62 -4076.22c5.58,-8.66 11.36,-17.27 17.32,-25.78 249.72,-356.64 741.29,-443.32 1097.93,-193.59 356.65,249.73 443.32,741.28 193.6,1097.93 -249.73,356.63 -741.29,443.31 -1097.93,193.58 -138.28,-96.82 -235.98,-230 -289.21,-377.58m-1541.38 2985.82c-356.64,-249.73 -443.31,-741.28 -193.59,-1097.93 249.72,-356.64 741.28,-443.31 1097.92,-193.58 356.65,249.72 443.32,741.28 193.6,1097.92 -249.73,356.64 -741.28,443.32 -1097.93,193.59zm2025.82 -1486.75c249.73,-356.65 741.29,-443.32 1097.93,-193.6 356.64,249.73 443.32,741.29 193.59,1097.93 -249.72,356.64 -741.28,443.32 -1097.93,193.6 -356.64,-249.73 -443.31,-741.29 -193.59,-1097.93zm-2608.23 -1830.59c249.72,-356.64 741.28,-443.32 1097.93,-193.59 356.64,249.72 443.31,741.28 193.59,1097.92 -249.73,356.64 -741.29,443.32 -1097.93,193.6 -356.64,-249.73 -443.32,-741.29 -193.59,-1097.93z"/>
      <path class="fil1" d="M6243.26 6362.8c-217.69,-377.05 -699.82,-506.24 -1076.88,-288.55 -377.05,217.69 -506.23,699.83 -288.54,1076.88 217.69,377.05 699.82,506.24 1076.87,288.55 377.05,-217.7 506.24,-699.83 288.55,-1076.88zm2757.85 -1596.3c-217.69,-377.05 -699.82,-506.24 -1076.87,-288.55 -377.05,217.69 -506.24,699.83 -288.55,1076.88 217.69,377.05 699.82,506.24 1076.88,288.55 377.05,-217.7 506.23,-699.83 288.54,-1076.88zm-2106.34 -332.12c-15.68,-87.33 -46.49,-173.48 -93.41,-254.74 -217.68,-377.05 -699.83,-506.23 -1076.88,-288.54 -377.05,217.69 -506.24,699.82 -288.55,1076.87 217.69,377.05 699.82,506.24 1076.87,288.55 90.34,-52.16 166.46,-119.51 226.98,-196.94m1369.33 2954.8c377.05,-217.7 506.24,-699.83 288.54,-1076.88 -217.69,-377.05 -699.82,-506.23 -1076.87,-288.54 -377.05,217.69 -506.24,699.82 -288.54,1076.86 217.69,377.06 699.82,506.25 1076.87,288.56zm-2229.04 -3079.82c-84.68,-70.16 -185.49,-123.65 -298.67,-153.97 -420.54,-112.68 -852.82,136.89 -965.5,557.44 -112.68,420.55 136.89,852.82 557.43,965.5 420.55,112.68 852.82,-136.89 965.5,-557.44 62.41,-232.9 13.71,-469.41 -113.6,-653.22m3192.45 1474.57c112.69,-420.55 -136.88,-852.82 -557.43,-965.5 -420.54,-112.69 -852.8,136.89 -965.49,557.43 -112.69,420.56 136.88,852.82 557.43,965.5 420.54,112.69 852.81,-136.88 965.49,-557.43zm-2507.53 163.25c-420.55,-112.68 -852.82,136.89 -965.5,557.43 -112.68,420.55 136.89,852.82 557.43,965.51 420.55,112.68 852.81,-136.89 965.5,-557.44 112.69,-420.54 -136.88,-852.81 -557.43,-965.5zm161.74 -1673.76c74.13,52.48 158.67,92.96 251.53,117.84 420.55,112.67 852.82,-136.89 965.51,-557.43 112.68,-420.55 -136.89,-852.81 -557.43,-965.5 -420.55,-112.68 -852.82,136.89 -965.51,557.43 -20.83,77.73 -29.27,155.86 -26.56,232.29"/>
      <path class="fil1" d="M7574.87 6362.8c217.69,-377.05 699.83,-506.24 1076.88,-288.55 377.05,217.69 506.24,699.83 288.55,1076.88 -217.7,377.05 -699.83,506.24 -1076.88,288.55 -377.05,-217.7 -506.24,-699.83 -288.55,-1076.88zm-1290.21 -1275.95c14.93,157.33 -17.18,320.69 -102.22,467.98 -217.68,377.05 -699.82,506.24 -1076.87,288.55 -377.06,-217.7 -506.24,-699.83 -288.55,-1076.88 211.54,-366.4 672.8,-498.74 1044.68,-306.17m1061.67 -25.95c15.68,-87.32 46.48,-173.48 93.4,-254.74 217.68,-377.05 699.83,-506.23 1076.88,-288.54 377.05,217.69 506.24,699.82 288.55,1076.87 -217.69,377.05 -699.82,506.24 -1076.87,288.55 -116.77,-67.42 -209.77,-160.2 -276.05,-267.36m-1320.25 3025.22c-377.06,-217.7 -506.24,-699.83 -288.55,-1076.88 217.69,-377.05 699.82,-506.23 1076.87,-288.54 377.05,217.69 506.24,699.82 288.55,1076.86 -217.7,377.06 -699.82,506.25 -1076.87,288.56zm1970.27 -2268.29c-112.69,-420.54 136.89,-852.81 557.43,-965.5 420.55,-112.68 852.82,136.89 965.5,557.44 112.68,420.55 -136.89,852.82 -557.43,965.5 -420.54,112.68 -852.82,-136.89 -965.5,-557.44zm-3078.85 821.35c-112.68,-420.55 136.89,-852.82 557.43,-965.5 420.55,-112.69 852.81,136.89 965.49,557.43 112.69,420.56 -136.88,852.82 -557.42,965.5 -420.55,112.69 -852.82,-136.88 -965.5,-557.43zm2507.53 163.25c420.55,-112.68 852.82,136.89 965.5,557.43 112.69,420.55 -136.88,852.82 -557.43,965.51 -420.54,112.68 -852.81,-136.89 -965.5,-557.44 -112.69,-420.54 136.88,-852.81 557.43,-965.5zm-1214.08 -1802.02c-75.44,-87.23 -132.84,-192.46 -164.69,-311.33 -112.68,-420.55 136.88,-852.81 557.43,-965.5 420.54,-112.68 852.81,136.89 965.5,557.43 77.95,290.91 -17.45,587.44 -222.86,779.89m-83.04 67.77c-74.13,52.48 -158.67,92.96 -251.53,117.84 -232.38,62.26 -468.35,13.92 -651.98,-112.76"/>
      <path class="fil1" d="M6116.46 6893.62c-409.13,-148.91 -861.5,62.04 -1010.41,471.16 -148.91,409.13 62.04,861.5 471.16,1010.41 409.13,148.91 861.5,-62.04 1010.41,-471.16 148.91,-409.13 -62.03,-861.5 -471.16,-1010.41zm168.2 -1806.77c89.7,130.12 219.29,234.62 379.11,292.79 409.12,148.9 861.5,-62.04 1010.41,-471.16 148.91,-409.13 -62.04,-861.5 -471.16,-1010.41 -397.57,-144.7 -835.99,50.4 -997.07,436.96m-594.11 1537.87c148.91,-409.13 -62.03,-861.51 -471.16,-1010.42 -409.12,-148.91 -861.5,62.05 -1010.41,471.17 -148.91,409.13 62.04,861.5 471.16,1010.41 409.13,148.91 861.5,-62.04 1010.41,-471.16zm2995.55 1086.55c148.91,-409.12 -62.03,-861.49 -471.16,-1010.4 -409.12,-148.91 -861.49,62.03 -1010.4,471.16 -148.91,409.12 62.03,861.5 471.16,1010.4 409.12,148.91 861.49,-62.03 1010.4,-471.16zm-2967.34 -471.13c-184,-394.59 -653.04,-565.3 -1047.62,-381.31 -394.59,184.01 -565.31,653.05 -381.31,1047.63 184,394.59 653.04,565.31 1047.63,381.31 394.58,-184 565.3,-653.04 381.3,-1047.63zm2886.49 -1349.86c-184,-394.59 -653.04,-565.31 -1047.63,-381.31 -394.59,184 -565.3,653.04 -381.3,1047.63 184,394.6 653.04,565.31 1047.63,381.31 394.59,-184 565.3,-653.04 381.3,-1047.63zm-1815.95 1736.87c-394.59,184 -565.3,653.04 -381.3,1047.63 184,394.59 653.04,565.3 1047.63,381.3 394.59,-183.99 565.3,-653.03 381.31,-1047.63 -184,-394.59 -653.04,-565.3 -1047.64,-381.3zm-422.21 -2690.05c-224.91,-258.36 -601.68,-348.44 -927.64,-196.44 -394.59,184 -565.31,653.04 -381.31,1047.63 184,394.59 653.04,565.31 1047.63,381.31 130.79,-60.99 236.98,-153.3 313.81,-263.82"/>
      <path class="fil1" d="M7701.67 6893.62c409.13,-148.91 861.5,62.04 1010.41,471.16 148.91,409.13 -62.04,861.5 -471.16,1010.41 -409.13,148.91 -861.5,-62.04 -1010.41,-471.16 -148.91,-409.13 62.04,-861.5 471.16,-1010.41zm-1538.23 -2572.88c83.65,-189.63 241.52,-346.18 451.67,-422.67 409.13,-148.91 861.5,62.03 1010.41,471.16 148.91,409.12 -62.03,861.5 -471.16,1010.41 -317.44,115.54 -660.92,14.43 -868.48,-227.78m1920.41 721.04c-148.91,-409.13 62.03,-861.51 471.16,-1010.42 409.12,-148.91 861.5,62.05 1010.41,471.17 148.91,409.13 -62.04,861.5 -471.16,1010.41 -409.13,148.91 -861.5,-62.04 -1010.41,-471.16zm-2995.55 1086.55c-148.91,-409.12 62.03,-861.49 471.16,-1010.4 409.12,-148.91 861.49,62.03 1010.4,471.16 148.91,409.12 -62.03,861.5 -471.16,1010.4 -409.12,148.91 -861.49,-62.03 -1010.4,-471.16zm2967.34 -471.13c184,-394.59 653.04,-565.3 1047.63,-381.31 394.59,184.01 565.3,653.05 381.3,1047.63 -184,394.59 -653.04,565.31 -1047.63,381.31 -394.58,-184 -565.3,-653.04 -381.3,-1047.63zm-1493.76 -1418.61c127.93,216.35 150.44,490.06 36.2,735.07 -184,394.59 -653.04,565.31 -1047.63,381.31 -394.58,-184 -565.3,-653.04 -381.3,-1047.63 97.19,-208.41 273.9,-354.38 477.14,-418.6m1338.81 2155.47c394.59,184 565.3,653.04 381.3,1047.63 -184,394.59 -653.04,565.3 -1047.63,381.3 -394.59,-183.99 -565.3,-653.03 -381.3,-1047.63 184,-394.59 653.03,-565.3 1047.63,-381.3zm1349.86 -2886.49c394.59,184 565.3,653.04 381.3,1047.63 -184,394.59 -653.03,565.31 -1047.62,381.31 -394.59,-184.01 -565.31,-653.04 -381.31,-1047.63 184,-394.59 653.04,-565.31 1047.63,-381.31z"/>
      <path class="fil1" d="M3844.44 5895.67l-2.18 133.18c13.96,203.17 106.49,396.4 261.15,534.55 56.18,50.18 120.56,93.09 192.35,126.57 272.95,127.28 581.53,84.83 806.74,-84.05 100.36,-75.26 184.17,-175.62 240.89,-297.26 60.47,-129.67 82.63,-267.38 71.12,-400.37 -23.5,-271.71 -187.51,-523.73 -452.43,-647.26 -68.62,-32 -139.5,-53.27 -210.74,-64.5 -168.06,-26.5 -338.13,2.89 -485.38,79.12 -149.21,77.26 -275,202.62 -351.5,366.69 -38.37,82.29 -61.32,167.83 -70.02,253.33zm2516.09 1486.09c-133.82,48.7 -246.43,129.87 -332.19,231.38 -176.43,208.82 -239.17,503.72 -138.97,779.02 28.09,77.18 66.99,147.31 114.35,209.31 203.7,266.6 564.11,382.67 896.06,261.86 327.17,-119.08 527.61,-432.24 518.63,-762.15 -2.25,-82.63 -17.64,-166.31 -47.47,-248.26 -104.35,-286.69 -357.7,-476.07 -640.77,-512.5 -120.89,-15.56 -247.2,-3.22 -369.64,41.34zm-475.46 -2959.7c-185.97,-91.48 -407.54,-109.94 -617.69,-33.46 -342.29,124.58 -545.85,461.57 -516.04,807.93 5.83,67.64 20.55,135.64 44.88,202.48 101.58,279.08 344.35,465.94 618.29,509.28 127.65,20.19 262.07,9.21 392.12,-38.12 119.65,-43.55 222.36,-113.06 304.07,-199.85 135.05,-143.46 212.76,-334.14 214.81,-532.88m-1007.65 1786.76c-46.12,-126.7 -121.33,-234.39 -215.36,-318.28 -209.59,-186.99 -512.62,-255.68 -795.05,-152.89 -75.01,27.3 -143.35,64.8 -204.04,110.37 -270.33,202.96 -388.73,565.93 -267.12,900.05 121.82,334.69 446.73,536.75 784.9,517.68 75.21,-4.25 151.08,-19.43 225.51,-46.52 283.01,-103.01 471.19,-351.22 511.02,-629.88 17.75,-124.18 6.04,-254.41 -39.86,-380.53zm2993.15 -1093.15c-121.81,-334.7 -446.72,-536.76 -784.9,-517.68 -75.21,4.24 -151.07,19.42 -225.5,46.51 -283.01,103.01 -471.19,351.22 -511.02,629.88 -17.75,124.18 -6.04,254.41 39.86,380.53 46.12,126.7 121.33,234.4 215.36,318.28 209.59,186.99 512.62,255.67 795.04,152.88 75,-27.3 143.35,-64.8 204.03,-110.36 270.35,-202.96 388.74,-565.92 267.13,-900.04zm-2575.95 1546.46c-122.2,-56.99 -251.54,-79.95 -377.34,-72.78 -280.42,15.98 -543.27,181.7 -670.29,454.08 -33.73,72.34 -55.54,147.18 -66.24,222.32 -47.64,334.67 125.3,675.04 447.55,825.31 329.53,153.66 710.98,59.93 934.98,-204.97 44.23,-52.31 82.31,-111.28 112.65,-176.34 128.27,-275.08 84.15,-586.35 -88.03,-811.99 -74.8,-98.04 -173.77,-179.91 -293.28,-235.63zm1188.31 -2943.13c-128.94,-30 -260.72,-26.23 -383.94,7.18m-577.64 672.86c-22.32,198.45 32.25,397.33 148.91,555.9 75.71,102.92 177.58,188.86 301.54,246.66 122.2,56.99 251.55,79.95 377.35,72.78 280.42,-15.98 543.26,-181.69 670.28,-454.08 33.73,-72.34 55.54,-147.18 66.24,-222.31 38.04,-267.2 -64.54,-538.03 -271.43,-712.85m-450.77 2385.32c-53.55,114.84 -77.06,235.99 -73.74,354.58 8.07,288.88 175.29,562.6 455.04,693.05 75.83,35.36 154.42,57.62 233.2,67.71 331.15,42.4 665.79,-130.26 814.43,-449.02 150.53,-322.8 63.66,-695.42 -188.96,-921.07 -56.18,-50.17 -120.55,-93.08 -192.34,-126.56 -272.95,-127.28 -581.52,-84.83 -806.73,84.04 -100.37,75.26 -184.18,175.63 -240.9,297.27z"/>
      <path class="fil1" d="M7457.6 7381.76c409.13,148.9 620.07,601.28 471.16,1010.4 -148.91,409.13 -601.28,620.07 -1010.41,471.17 -409.12,-148.91 -620.07,-601.29 -471.16,-1010.41 148.91,-409.13 601.29,-620.07 1010.41,-471.16zm1093.15 -2993.16c409.13,148.91 620.07,601.29 471.17,1010.41 -148.91,409.13 -601.29,620.07 -1010.41,471.16 -409.13,-148.9 -620.07,-601.28 -471.17,-1010.4 148.91,-409.13 601.29,-620.07 1010.41,-471.17zm-50.48 2535.6c148.91,-409.12 601.28,-620.08 1010.41,-471.17 409.12,148.91 620.07,601.29 471.16,1010.42 -148.91,409.12 -601.29,620.07 -1010.41,471.16 -409.13,-148.91 -620.07,-601.28 -471.16,-1010.41zm-2993.15 -1093.15c148.91,-409.13 601.28,-620.07 1010.41,-471.17 409.12,148.91 620.06,601.29 471.15,1010.41 -148.91,409.13 -601.28,620.07 -1010.4,471.16 -409.12,-148.91 -620.07,-601.28 -471.16,-1010.4zm2575.95 1546.46c394.59,-184.01 863.63,-13.28 1047.63,381.3 184,394.59 13.28,863.63 -381.31,1047.63 -394.59,184 -863.63,13.28 -1047.63,-381.31 -183.99,-394.58 -13.27,-863.63 381.31,-1047.62zm-1188.3 -2943.13c355.33,-82.7 732.1,91.15 892.43,434.98 183.99,394.59 13.28,863.62 -381.31,1047.62 -394.6,184.01 -863.63,13.29 -1047.63,-381.3 -66.36,-142.31 -86.57,-294.31 -66.8,-439.12m722.77 1889.28c183.99,394.59 13.28,863.63 -381.31,1047.63 -394.59,184 -863.63,13.28 -1047.63,-381.31 -184,-394.58 -13.29,-863.62 381.3,-1047.63 394.59,-184 863.63,-13.28 1047.64,381.31zm2889.45 -1343.5c184,394.59 13.28,863.62 -381.31,1047.63 -394.59,184 -863.63,13.28 -1047.63,-381.31 -184,-394.59 -13.28,-863.63 381.31,-1047.63 394.59,-184 863.63,-13.28 1047.63,381.31z"/>
      <path class="fil1" d="M6861.27 7598.8c-217.69,377.06 -88.51,859.19 288.54,1076.88 377.06,217.69 859.19,88.5 1076.88,-288.55 217.69,-377.05 88.5,-859.18 -288.55,-1076.87 -377.05,-217.7 -859.18,-88.51 -1076.87,288.54zm-2761.37 -1590.22c-217.69,377.05 -88.5,859.19 288.55,1076.88 377.05,217.69 859.18,88.5 1076.88,-288.55 217.69,-377.05 88.5,-859.19 -288.55,-1076.88 -377.05,-217.69 -859.19,-88.5 -1076.88,288.55zm1668.52 1909.93c-377.05,-217.69 -859.18,-88.51 -1076.87,288.54 -217.69,377.05 -88.5,859.19 288.55,1076.88 377.05,217.69 859.18,88.5 1076.87,-288.55 217.69,-377.05 88.51,-859.18 -288.55,-1076.87zm1140.65 -2865.11c-252.23,18 -491.35,156.81 -627.3,392.29 -217.69,377.04 -88.5,859.18 288.55,1076.87 377.06,217.69 859.18,88.51 1076.87,-288.54 217.69,-377.06 88.51,-859.18 -288.54,-1076.88 -89.19,-51.49 -184.25,-83.58 -280.3,-97.56m-698.95 2938.02c-420.55,112.68 -670.12,544.95 -557.44,965.49 112.69,420.55 544.96,670.12 965.51,557.43 420.54,-112.69 670.11,-544.95 557.43,-965.5 -112.69,-420.54 -544.96,-670.11 -965.5,-557.42zm-446.63 -3083.83c-121.86,-28.25 -252.23,-27.85 -381.49,6.79 -420.55,112.68 -670.12,544.95 -557.44,965.5 112.69,420.54 544.96,670.11 965.5,557.42 420.56,-112.68 670.12,-544.95 557.44,-965.49 -40.64,-151.68 -122.86,-281.12 -231.09,-379.33m660.73 1911.86c112.69,420.55 544.96,670.12 965.5,557.43 420.55,-112.69 670.12,-544.96 557.44,-965.5 -112.69,-420.55 -544.96,-670.12 -965.5,-557.43 -420.55,112.68 -670.12,544.95 -557.44,965.5zm-3077.03 828.12c112.68,420.54 544.95,670.11 965.5,557.43 420.55,-112.68 670.12,-544.95 557.43,-965.5 -112.69,-420.55 -544.96,-670.12 -965.5,-557.43 -420.55,112.68 -670.12,544.95 -557.43,965.5z"/>
      <path class="fil1" d="M6960.93 7602.53c211.67,372.54 84.67,855.14 -296.33,1075.27 -372.53,211.67 -855.13,84.67 -1075.27,-287.87 -211.66,-381 -84.66,-863.6 287.87,-1083.73 381,-211.67 863.6,-84.67 1083.73,296.33zm2760.14 -1591.73c211.66,372.53 84.66,855.13 -287.87,1075.27 -381,220.13 -863.6,84.66 -1083.73,-287.87 -211.67,-381 -84.67,-863.6 287.86,-1075.27 381,-220.13 863.6,-93.13 1083.74,287.87zm-1667.94 1905c372.54,-211.67 855.14,-84.67 1075.27,287.87 211.67,381 84.67,863.6 -287.87,1083.73 -381,211.67 -863.6,84.67 -1075.26,-287.87 -220.14,-381 -93.14,-863.6 287.86,-1083.73zm-1143 -2861.73c254,16.93 491.07,152.4 626.54,389.46 220.13,381 84.66,863.6 -287.87,1075.27 -381,220.13 -863.6,93.13 -1075.27,-287.87 -220.13,-372.53 -93.13,-855.13 287.87,-1075.26 84.67,-50.8 186.27,-84.67 279.4,-93.14m694.27 2937.94c423.33,110.06 677.33,541.86 558.8,965.2 -110.07,414.86 -541.87,668.86 -965.2,558.8 -414.87,-118.54 -668.87,-550.34 -558.8,-973.67 118.53,-414.87 550.33,-668.87 965.2,-550.33zm829.73 -3081.87c423.33,118.53 668.87,550.33 558.8,965.2 -110.07,423.33 -541.87,668.87 -965.2,558.8 -423.33,-110.07 -668.87,-541.87 -558.8,-965.2 118.53,-423.33 550.33,-668.87 965.2,-558.8zm-1397 2091.27c-110.07,423.33 -541.87,668.86 -965.2,558.8 -414.87,-110.07 -668.87,-541.87 -550.33,-965.2 110.06,-423.34 541.86,-668.87 965.2,-558.8 414.86,110.06 668.86,541.86 550.33,965.2zm3081.87 829.73c-110.07,423.33 -541.87,668.87 -965.2,558.8 -423.34,-118.53 -668.87,-550.33 -558.8,-965.2 110.06,-423.33 541.86,-668.87 965.2,-558.8 423.33,110.07 668.86,541.87 558.8,965.2z"/>
      <path class="fil1" d="M7384.27 7441.67c76.2,431.8 482.6,719.66 914.4,643.46 431.8,-76.2 711.2,-491.06 635,-914.4 -76.2,-431.8 -482.6,-719.66 -905.94,-643.46 -431.8,76.2 -719.66,491.06 -643.46,914.4zm-3141.14 558.8c76.2,431.8 491.07,711.2 914.4,635 431.8,-67.74 719.67,-482.6 643.47,-905.94 -76.2,-431.8 -482.6,-719.66 -914.4,-643.46 -431.8,76.2 -711.2,482.6 -643.47,914.4zm2506.14 389.46c-423.34,76.2 -711.2,482.6 -635,914.4 76.2,431.8 482.6,711.2 914.4,635 423.33,-67.73 711.2,-482.6 635,-905.93 -76.2,-431.8 -482.6,-719.67 -914.4,-643.47zm-550.34 -3132.66c-431.8,67.73 -719.66,482.6 -643.46,905.93 76.2,431.8 482.6,719.67 914.4,643.47 431.8,-76.2 711.2,-482.6 643.46,-914.4 -76.2,-431.8 -491.06,-711.2 -914.4,-635zm1075.27 2802.46c-254,355.6 -169.33,846.67 194.73,1100.67 355.6,245.53 846.67,160.87 1092.2,-194.73 254,-355.6 160.87,-855.14 -194.73,-1100.67 -355.6,-254 -846.67,-160.87 -1092.2,194.73zm-2616.2 -1828.8c-245.53,355.6 -160.87,846.67 194.73,1100.67 355.6,245.53 846.67,160.87 1100.67,-194.73 245.53,-355.6 160.87,-846.67 -194.73,-1100.67 -355.6,-245.53 -846.67,-160.87 -1100.67,194.73zm2413 702.74c355.6,254 846.67,169.33 1100.67,-186.27 245.53,-355.6 160.86,-855.13 -194.74,-1100.67 -355.6,-254 -846.66,-160.86 -1100.66,194.74 -245.54,355.6 -160.87,846.66 194.73,1092.2zm-1820.33 2616.2c355.6,254 846.66,160.86 1092.2,-194.74 254,-355.6 160.86,-846.66 -194.74,-1100.66 -355.6,-245.54 -846.66,-160.87 -1092.2,194.73 -254,355.6 -169.33,855.13 194.74,1100.67z"/>
      <path class="fil1" d="M6436 7441.67c-76.2,431.8 -482.6,719.66 -914.4,643.46 -431.8,-76.2 -719.67,-491.06 -643.47,-914.4 76.2,-431.8 491.07,-719.66 914.4,-643.46 431.8,76.2 719.67,491.06 643.47,914.4zm3132.67 558.8c-76.2,431.8 -482.6,711.2 -914.4,635 -423.34,-67.74 -711.2,-482.6 -635,-905.94 76.2,-431.8 482.6,-719.66 914.4,-643.46 423.33,76.2 711.2,482.6 635,914.4zm-2506.14 389.46c431.8,76.2 719.67,482.6 643.47,914.4 -76.2,431.8 -482.6,711.2 -914.4,635 -431.8,-67.73 -711.2,-482.6 -643.47,-905.93 76.2,-431.8 491.07,-719.67 914.4,-643.47zm558.8 -3132.66c431.8,67.73 719.67,482.6 643.47,905.93 -76.2,431.8 -491.07,719.67 -914.4,643.47 -431.8,-76.2 -719.67,-482.6 -643.47,-914.4 76.2,-431.8 482.6,-711.2 914.4,-635zm-1075.26 2802.46c254,355.6 160.86,846.67 -194.74,1100.67 -355.6,245.53 -846.66,160.87 -1092.2,-194.73 -254,-355.6 -169.33,-855.14 186.27,-1100.67 364.07,-254 855.13,-160.87 1100.67,194.73zm2616.2 -1828.8c245.53,355.6 160.86,846.67 -194.74,1100.67 -355.6,245.53 -846.66,160.87 -1100.66,-194.73 -245.54,-355.6 -160.87,-846.67 194.73,-1100.67 355.6,-245.53 846.67,-160.87 1100.67,194.73zm-2413 702.74c-355.6,254 -846.67,169.33 -1100.67,-186.27 -245.53,-355.6 -160.87,-855.13 194.73,-1100.67 355.6,-254 846.67,-160.86 1100.67,194.74 245.53,355.6 160.87,846.66 -194.73,1092.2zm1820.33 2616.2c-355.6,254 -846.67,160.86 -1092.2,-194.74 -254,-355.6 -169.33,-846.66 186.27,-1100.66 364.06,-245.54 855.13,-160.87 1100.66,194.73 254,355.6 160.87,855.13 -194.73,1100.67z"/>
      <path class="fil1" d="M7689.07 6984.47c330.2,279.4 829.73,237.06 1109.13,-93.14 279.4,-330.2 237.07,-829.73 -101.6,-1109.13 -330.2,-279.4 -829.73,-237.07 -1109.13,93.13 -279.4,338.67 -237.07,829.74 101.6,1109.14zm-2048.94 2446.86c330.2,279.4 829.74,237.07 1109.14,-101.6 279.4,-330.2 237.06,-829.73 -93.14,-1109.13 -338.66,-279.4 -829.73,-237.07 -1117.6,101.6 -279.4,330.2 -228.6,829.73 101.6,1109.13zm2167.47 -1312.33c-279.4,330.2 -237.07,829.73 101.6,1109.13 330.2,279.4 829.73,237.07 1109.13,-93.13 279.4,-338.67 237.07,-829.73 -101.6,-1109.13 -330.2,-279.4 -829.73,-237.07 -1109.13,93.13zm-2438.4 -2048.93c-279.4,338.66 -237.07,838.2 93.13,1117.6 338.67,279.4 829.74,237.06 1109.14,-101.6 279.4,-330.2 237.06,-829.74 -93.14,-1109.14 -330.2,-279.4 -829.73,-237.06 -1109.13,93.14zm2624.67 1464.73c42.33,431.8 423.33,753.53 855.13,711.2 431.8,-33.87 753.53,-414.87 719.67,-855.13 -42.34,-431.8 -423.34,-753.54 -855.14,-711.2 -440.26,33.86 -753.53,414.86 -719.66,855.13zm-3175 279.4c42.33,431.8 423.33,753.53 855.13,711.2 431.8,-33.87 753.53,-414.87 719.67,-846.67 -42.34,-440.26 -423.34,-762 -855.14,-719.66 -431.8,33.86 -753.53,423.33 -719.66,855.13zm2302.93 -1016c431.8,-33.87 753.53,-414.87 711.2,-846.67 -33.87,-440.26 -414.87,-762 -846.67,-719.66 -440.26,33.86 -762,423.33 -719.66,855.13 33.86,431.8 423.33,753.53 855.13,711.2zm279.4 3175c431.8,-33.87 753.53,-414.87 719.67,-855.13 -42.34,-431.8 -423.34,-753.54 -855.14,-711.2 -431.8,33.86 -753.53,414.86 -719.66,855.13 42.33,431.8 423.33,753.53 855.13,711.2z"/>
      <path class="fil1" d="M6131.2 6984.47c-330.2,279.4 -829.73,237.06 -1109.13,-93.14 -279.4,-330.2 -237.07,-829.73 101.6,-1109.13 330.2,-279.4 829.73,-237.07 1109.13,93.13 279.4,338.67 237.07,829.74 -101.6,1109.14zm2048.93 2446.86c-338.66,279.4 -829.73,237.07 -1109.13,-101.6 -279.4,-330.2 -237.07,-829.73 93.13,-1109.13 338.67,-279.4 829.74,-237.07 1109.14,101.6 279.4,330.2 237.06,829.73 -93.14,1109.13zm-2175.93 -1312.33c287.87,330.2 237.07,829.73 -93.13,1109.13 -330.2,279.4 -829.74,237.07 -1109.14,-93.13 -279.4,-338.67 -237.06,-829.73 93.14,-1109.13 338.66,-279.4 829.73,-237.07 1109.13,93.13zm2446.87 -2048.93c279.4,338.66 237.06,838.2 -93.14,1117.6 -338.66,279.4 -838.2,237.06 -1117.6,-101.6 -279.4,-330.2 -237.06,-829.74 101.6,-1109.14 330.2,-279.4 829.74,-237.06 1109.14,93.14zm-2624.67 1464.73c-42.33,431.8 -423.33,753.53 -855.13,711.2 -431.8,-33.87 -753.54,-414.87 -719.67,-855.13 42.33,-431.8 423.33,-753.54 855.13,-711.2 431.8,33.86 753.54,414.86 719.67,855.13zm3175 279.4c-42.33,431.8 -423.33,753.53 -855.13,711.2 -431.8,-33.87 -753.54,-414.87 -719.67,-846.67 42.33,-440.26 423.33,-762 855.13,-719.66 431.8,33.86 753.54,423.33 719.67,855.13zm-2302.93 -1016c-431.8,-33.87 -753.54,-414.87 -719.67,-846.67 42.33,-440.26 423.33,-762 855.13,-719.66 431.8,33.86 753.54,423.33 719.67,855.13 -42.33,431.8 -423.33,753.53 -855.13,711.2zm-279.4 3175c-440.27,-33.87 -753.54,-414.87 -719.67,-855.13 42.33,-431.8 423.33,-753.54 855.13,-711.2 431.8,33.86 753.54,414.86 719.67,855.13 -42.33,431.8 -423.33,753.53 -855.13,711.2z"/>
      <path class="fil1" d="M7621.33 6442.6c440.27,0 787.4,-347.13 787.4,-787.4 0,-431.8 -347.13,-787.4 -787.4,-787.4 -431.8,0 -787.4,355.6 -787.4,787.4 0,440.27 355.6,787.4 787.4,787.4zm8.47 3191.93c431.8,0 787.4,-355.6 787.4,-787.4 0,-440.26 -355.6,-795.86 -787.4,-795.86 -440.27,0 -795.87,355.6 -795.87,795.86 0,431.8 355.6,787.4 795.87,787.4zm812.8 -2404.53c0,440.27 355.6,787.4 795.87,787.4 431.8,0 787.4,-347.13 787.4,-787.4 0,-431.8 -355.6,-787.4 -787.4,-787.4 -440.27,0 -795.87,355.6 -795.87,787.4zm-3183.47 8.47c0,431.8 355.6,787.4 787.4,787.4 440.27,0 787.4,-355.6 787.4,-787.4 0,-440.27 -347.13,-787.4 -787.4,-787.4 -431.8,0 -787.4,347.13 -787.4,787.4zm2946.4 -575.74c313.27,304.8 812.8,304.8 1117.6,0 304.8,-304.8 304.8,-804.33 0,-1117.6 -304.8,-304.8 -804.33,-304.8 -1117.6,0 -304.8,313.27 -304.8,812.8 0,1117.6zm-2243.66 2260.6c304.8,304.8 804.33,304.8 1109.13,0 313.27,-313.26 313.27,-812.8 0,-1117.6 -304.8,-313.26 -804.33,-313.26 -1109.13,0 -313.27,304.8 -313.27,804.34 0,1117.6zm1109.13 -2260.6c304.8,-304.8 304.8,-804.33 0,-1109.13 -304.8,-313.27 -804.33,-313.27 -1117.6,0 -304.8,304.8 -304.8,804.33 0,1109.13 313.27,313.27 812.8,313.27 1117.6,0zm2252.13 2252.14c313.27,-304.8 313.27,-804.34 0,-1109.14 -304.8,-313.26 -804.33,-313.26 -1109.13,0 -313.27,304.8 -313.27,804.34 0,1109.14 304.8,313.26 804.33,313.26 1109.13,0z"/>
      <path class="fil1" d="M6715.4 5062.53c160.87,143.94 270.93,355.6 270.93,592.67 0,440.27 -355.6,787.4 -787.4,787.4 -440.26,0 -795.86,-347.13 -795.86,-787.4 0,-338.67 220.13,-635 533.4,-745.07m254 4724.4c-431.8,0 -787.4,-355.6 -787.4,-787.4 0,-440.26 355.6,-795.86 787.4,-795.86 440.26,0 787.4,355.6 787.4,795.86 0,431.8 -347.14,787.4 -787.4,787.4zm-821.27 -2404.53c0,440.27 -347.13,787.4 -787.4,787.4 -431.8,0 -787.4,-347.13 -787.4,-787.4 0,-431.8 355.6,-787.4 787.4,-787.4 440.27,0 787.4,355.6 787.4,787.4zm3191.93 8.47c0,431.8 -355.6,787.4 -787.4,787.4 -440.26,0 -795.86,-355.6 -795.86,-787.4 0,-440.27 355.6,-787.4 795.86,-787.4 431.8,0 787.4,347.13 787.4,787.4zm-2954.86 -575.74c-304.8,304.8 -804.34,304.8 -1109.14,0 -313.26,-304.8 -313.26,-804.33 0,-1117.6 304.8,-304.8 804.34,-304.8 1109.14,0 313.26,313.27 313.26,812.8 0,1117.6zm2252.13 2260.6c-304.8,304.8 -804.33,304.8 -1117.6,0 -304.8,-313.26 -304.8,-812.8 8.47,-1117.6 304.8,-313.26 804.33,-313.26 1109.13,0 313.27,304.8 313.27,804.34 0,1117.6zm-1109.13 -2260.6c-313.27,-304.8 -313.27,-804.33 0,-1109.13 304.8,-313.27 804.33,-313.27 1109.13,0 313.27,304.8 313.27,804.33 0,1109.13 -304.8,313.27 -804.33,313.27 -1109.13,0zm-2260.6 2252.14c-304.8,-304.8 -304.8,-804.34 0,-1109.14 313.26,-313.26 812.8,-313.26 1117.6,0 304.8,304.8 304.8,804.34 0,1109.14 -304.8,313.26 -804.34,313.26 -1117.6,0z"/>
     </g>
     <path class="fil2 str0" d="M7006.76 5816.47c-2555.8,-282.29 -4676.38,-74.33 -4736.43,464.48 -60.05,538.82 1963.17,1204.45 4518.98,1486.73 2555.8,282.29 4676.38,74.33 4736.43,-464.48 60.05,-538.82 -1963.17,-1204.45 -4518.98,-1486.73z"/>
     <path class="fil2 str0" d="M7006.76 5816.47c-2555.8,-282.29 -4676.38,-74.33 -4736.43,464.48 -60.05,538.82 1963.17,1204.45 4518.98,1486.73 2555.8,282.29 4676.38,74.33 4736.43,-464.48 60.05,-538.82 -1963.17,-1204.45 -4518.98,-1486.73z"/>
    </g>
   </g>
   <path class="fil3 str1" d="M6914.4 244.8c3625.94,0 6565.35,2939.41 6565.35,6565.35 0,3625.94 -2939.41,6565.35 -6565.35,6565.35 -3625.94,0 -6565.35,-2939.41 -6565.35,-6565.35 0,-3625.94 2939.41,-6565.35 6565.35,-6565.35z"/>
   <path class="fil4" d="M6722.79 6558.84l86.36 0 0 89.75 -86.36 0 0 -89.75zm0 347.13l86.36 0 0 89.75 -86.36 0 0 -89.75z"/>
   <path id="1" class="fil4" d="M6893.53 7168.44c43.18,-85.51 71.97,-147.32 84.67,-187.11 19.47,-59.27 28.79,-128.7 28.79,-208.28 0,-79.59 -11.01,-152.4 -33.87,-218.45 -13.55,-40.64 -40.64,-99.06 -81.28,-176.1l49.95 0c42.34,67.73 67.74,109.22 77.05,125.3 9.31,16.09 18.63,38.1 29.63,66.04 12.7,34.72 22.02,68.59 27.94,101.61 5.93,33.86 8.47,66.04 8.47,97.36 0,81.28 -12.7,154.1 -38.95,218.44 -16.08,41.49 -49.1,101.6 -100.75,181.19l-51.65 0z"/>
   <path class="fil3 str2" d="M7618.86 5892.66c913.52,126.78 1736.12,300.75 2388.3,495.73 85.04,138.87 127.96,305.22 112.68,479.89 -9.62,109.99 -41.39,212.72 -90.54,304.19 1.07,39.05 -0.77,78.46 -5.68,117.91 -6.23,83.37 -25.29,162.82 -55.13,236.51 13.94,101.36 8.59,207.3 -18.82,312.71 -1.48,5.69 -3.04,11.34 -4.63,16.97 -841.35,68.31 -1950.04,44.28 -3155.73,-88.89 -1157.52,-127.84 -2205.79,-334.32 -3000.78,-572.04 -0.02,-7.73 0.09,-15.46 0.3,-23.17 -49.15,-91.46 -80.92,-194.2 -90.54,-304.19 -19.86,-226.99 58.55,-439.92 199.99,-596.76 -31.22,-77.11 -50.27,-159.05 -56.02,-242.67l2.18 -133.18c5.81,-57.15 18,-114.31 36.89,-170.51 523.15,-40.78 1147.35,-46.33 1832.55,-12.68 29.41,1.44 58.94,2.96 88.58,4.55 385.29,20.65 789.04,53.57 1204.3,99.44 207.83,22.95 412.14,48.44 612.1,76.19"/>
   <path class="fil3 str3" d="M7618.86 5892.66c913.52,126.78 1736.12,300.75 2388.3,495.73l5.63 9.35m-4823.94 1131.98l-19.85 -3.8m-1267.65 -1802.3c519.03,-39.37 1136.04,-44.36 1812.53,-11.14 636.54,31.17 1273.68,92.57 1904.98,180.18"/>
  </g>
  <path class="fil3" d="M12305.7 5217.43c879.63,2977.53 -821.05,6104.38 -3798.58,6984.02 -2977.53,879.63 -6104.38,-821.05 -6984.02,-3798.58 -879.63,-2977.53 821.05,-6104.38 3798.58,-6984.02 2977.53,-879.63 6104.38,821.05 6984.02,3798.58z"/>
  <path class="fil5" d="M12376.49 8081.41c2.88,-12.08 9.76,-21.46 19.97,-27.73 10.88,-6.69 22.36,-8.58 34.43,-5.69 12.08,2.88 21.47,9.76 27.6,20.51 6.14,10.75 8.03,22.24 5.28,33.76 -2.76,11.54 -9.64,20.92 -19.97,27.73 -10.2,6.27 -21.68,8.17 -33.76,5.28 -12.07,-2.89 -21.46,-9.77 -28.28,-20.1 -6.27,-10.21 -8.16,-21.68 -5.27,-33.76z"/>
  <path id="1" class="fil5" d="M12352.29 8298.05l52.04 15.12c-18.84,16.28 -34.04,34.2 -45.38,55 -11.34,20.81 -19.4,38.45 -23.81,53.63 -7.25,24.93 -8.65,43.92 -3.67,57.12 4.83,13.75 13.01,22 24.93,25.46 8.13,2.37 15.42,1.55 22.8,-1.6 7,-3.84 17.82,-14.8 31.78,-32.49l11.93 -14.76 23.47 -30.21c25.35,-32.6 45.13,-52.12 59.73,-57.88 14.76,-6.29 30.81,-6.91 48.16,-1.87 24.39,7.09 41.77,22.13 51.98,45.67 10.19,23.54 9.5,56.26 -2.78,98.53 -9.14,31.44 -22.68,59.83 -40.08,85.33l-44.45 -12.92c20.67,-28.67 35.61,-57.82 43.96,-86.56 5.99,-20.58 6.92,-37.95 3.34,-51.93 -4.28,-13.58 -11.76,-22.22 -22.6,-25.37 -10.3,-3 -20.39,-0.64 -29.89,7.78 -8.95,8.56 -21.26,22.61 -36.01,43.01l-22.23 29.99c-20.2,27.04 -38.27,44.72 -54.91,53.4 -16.62,8.69 -34.62,9.92 -54.13,4.25 -25.48,-7.4 -43.78,-23.3 -54.37,-47.54 -11.13,-24.39 -10.13,-58.2 2.47,-101.55 11.03,-37.94 30.5,-74.61 57.72,-109.61z"/>
  <path id="2" class="fil5" d="M12209.62 8695.43l250.9 86.19 27.88 -81.15 40.03 13.76 -44.38 129.19 -250.36 -86.01 -27.87 81.14 -40.57 -13.94 44.37 -129.18zm399.03 127.53c11.21,3.85 17.93,10.34 20.71,19.64 2.76,9.31 3.06,17.17 0.67,24.11 -2.38,6.93 -7.44,12.96 -15.34,18.59 -7.92,5.65 -17.2,6.64 -28.42,2.78 -10.66,-3.66 -17.39,-10.15 -20.17,-19.47 -2.76,-9.3 -3.04,-17.16 -0.66,-24.09 2.38,-6.94 7.43,-12.97 15.33,-18.61 7.91,-5.63 17.21,-6.62 27.88,-2.95z"/>
  <path id="3" class="fil5" d="M12123.12 8932.57l280.05 127.28 -21.25 46.75 -61.15 -27.79c15.51,23.18 25.23,46.8 28.92,71.43 3.69,24.61 1.45,45.91 -7.19,64.93 -7.48,16.44 -18.87,29.24 -33.91,39.15 -15.05,9.9 -31.07,13.78 -47.27,12.61 -16.97,-0.89 -45.88,-10.93 -87.5,-29.85l-156.73 -71.23 21.25 -46.76 162.38 73.8c27.24,12.38 45.18,19.29 55.07,20.69 9.91,1.41 18.93,-0.7 27.62,-4.81 8.69,-4.1 14.76,-10.65 18.5,-18.87 7.47,-16.44 7.7,-37.41 0.93,-63.44 -7.29,-26.25 -19.81,-50.54 -37.57,-72.87l-163.4 -74.27 21.25 -46.75z"/>
  <path id="4" class="fil5" d="M11983.73 9241.23l395.68 203.15 -23.46 45.69 -181.77 -93.33c14.38,23.89 22.96,47.96 25.47,72.73 2.52,24.76 -0.74,45.93 -10.28,64.51 -7.99,15.56 -19.22,27.57 -33.96,36.49 -14.48,8.44 -28.66,12.58 -42.78,11.67 -10.61,-0.36 -21.19,-2 -31.5,-5.38 -10.32,-3.4 -30.65,-13.21 -61.29,-28.94l-153.15 -78.62 23.46 -45.69 158.67 81.46c26.62,13.66 44.2,21.42 54.02,23.29 9.83,1.88 18.94,0.2 27.82,-3.49 8.87,-3.68 15.25,-9.93 19.37,-17.96 8.25,-16.07 9.48,-37.01 3.96,-63.33 -6.03,-26.56 -17.38,-51.43 -34.04,-74.58l-159.68 -81.98 23.46 -45.69z"/>
  <path id="5" class="fil5" d="M11653.07 9831.88l259.03 165.93 -27.7 43.25 -56.56 -36.23c12.05,25.15 18.29,49.92 18.43,74.82 0.15,24.89 -5.11,45.65 -16.37,63.24 -9.75,15.21 -22.85,26.25 -39.15,33.91 -16.3,7.66 -32.71,9.21 -48.59,5.74 -16.66,-3.3 -43.85,-17.36 -82.35,-42.02l-144.96 -92.86 27.71 -43.25 150.19 96.21c25.19,16.14 41.96,25.54 51.55,28.33 9.61,2.81 18.84,2.01 28.03,-0.82 9.18,-2.82 16.12,-8.44 20.99,-16.04 9.74,-15.21 12.96,-35.93 9.97,-62.66 -3.47,-27.02 -12.39,-52.85 -26.78,-77.48l-151.14 -96.82 27.7 -43.25z"/>
  <path id="6" class="fil5" d="M11395.83 10316.11c-11.02,-28.03 -14.27,-54.97 -10.88,-80.31 3.37,-25.32 10.24,-45.05 21.73,-59.7 15.68,-19.98 38.85,-31.22 69.07,-34.06 29.86,-2.39 62.77,10.52 98.3,38.4 27.97,21.95 49.09,47.15 62.49,74.87 13.84,28.09 20.01,55.89 18.59,84.19 -1.06,27.87 -12.26,54.95 -33.17,81.6 -5.92,7.54 -15.87,18.39 -29.4,32.88 -2.19,1.88 -5.08,4.64 -9.35,9.18l-31.71 40.4 -170.95 -134.16c-28.86,-22.65 -55.28,-38.36 -78.36,-46.43l33.1 -42.18c15.76,7.34 36.06,18.97 60.54,35.32zm47.51 37.28l103.9 81.54c15.16,-11.08 27.39,-23 37.14,-35.43 19.52,-24.87 26.12,-53.41 19.92,-84.82 -6.19,-31.41 -25.77,-60.4 -59.08,-86.54 -23.98,-18.82 -45.66,-28.67 -64.97,-28.76 -18.96,-0.52 -33.19,4.82 -42.6,16.81 -9.75,12.43 -14.34,31.07 -13.31,56.27 0.68,25.65 7.1,52.21 19,80.93zm312.92 91.31c-12.15,-7.38 -25.05,-11.05 -39.06,-10.56 -14.02,0.48 -24.73,4.99 -31.7,13.87 -6.97,8.88 -8.8,20.35 -5.58,33.63 3.2,13.28 9.49,25.39 19.54,35.44l-21.6 27.52c-14.59,-14.32 -24.33,-28.42 -29.67,-42.65 -4.54,-14.33 -6.16,-27.8 -4.62,-41.65 1.55,-13.86 6.2,-25.27 13.52,-34.59 7.67,-9.77 17.64,-17.01 30.74,-21.81 13.09,-4.79 26.56,-6.42 41.55,-5.41 15.1,1.8 31.11,7.91 48.84,18.23l-21.96 27.98z"/>
  <path id="7" class="fil5" d="M11272.48 10363.57l232.59 201.32 -29.18 33.72 -53.35 -46.18c13.39,30.25 20.31,54.15 21.09,70.51 0.84,17.14 -3.02,30.23 -11.15,39.62 -9.97,11.52 -21.99,16.79 -36.87,15.85 -14.88,-0.92 -30.21,-8.22 -46.85,-22.62l-12.37 -10.72c10.02,16.89 16.74,32.41 20.16,46.57 3.42,14.16 4.7,26.47 3.55,38.16 -0.37,11.62 -4.83,21.95 -12.58,30.91 -8.5,9.82 -20.15,14.66 -34.97,14.53 -14.81,-0.14 -34.84,-11.49 -60.02,-33.29l-175.83 -152.19 29.55 -34.15 159.19 137.79c12.8,11.08 22.13,18.41 27.57,21.62 5.43,3.21 10.75,4.83 15.16,4.92 4.77,-0.36 8.27,-1.8 10.86,-4.79 6.28,-7.25 7.74,-20.16 3.67,-37.88 -4.08,-17.71 -15.04,-42.13 -33.26,-72.83l-128.89 -111.56 28.08 -32.44 158.76 137.42c20.48,17.73 34.28,25.94 41.45,25.43 7.53,-0.94 12.56,-3.31 15.15,-6.29 6.28,-7.26 6.16,-20.06 0.8,-38.88 -5.36,-18.82 -14.13,-40.6 -27.06,-64.47l-134.43 -116.36 29.18 -33.72z"/>
  <path id="8" class="fil5" d="M10609.74 11053.22l187.27 -178.21 32.3 33.94c8.56,9 15.87,19.96 21.92,33.68 5.66,13.32 9.62,30.59 11.46,52.98 1.84,22.41 2.49,44.39 2.33,67.14l-1.04 41.5c0.2,8.38 0.52,27.55 1.38,57.12 0.87,29.57 2.73,51.17 6.4,64.04 3.68,12.87 9.41,22.98 17.58,31.58 12.45,13.08 27.5,18.24 45.13,15.49 17.64,-2.76 33,-10.37 46.49,-23.2 7.36,-7.01 15.17,-16 22.63,-26.99 7.84,-10.59 14.08,-20.41 18.7,-29.49 5,-8.65 11.79,-24.45 20.73,-46.98l31.51 33.12c-9.37,23.71 -20.69,45.39 -34.73,64.21 -14.04,18.82 -26.39,33.68 -37.43,44.18 -15.94,15.18 -33.41,27.13 -51.95,34.65 -18.56,7.52 -36.16,8.68 -53.21,3.87 -17.45,-4.43 -31.62,-12.76 -43.68,-25.44 -13.61,-14.31 -23.14,-32.52 -28.18,-55 -5.42,-22.89 -7.37,-56.87 -5.85,-101.95l1.11 -44.69 1.7 -36.69c0.19,-23.54 -1.28,-44.74 -4.4,-63.58 -3.54,-18.46 -12.68,-36.25 -27.04,-52.97l-148.84 141.63 -32.29 -33.94z"/>
  <path id="9" class="fil5" d="M10718.13 11530.83c-38.26,29.87 -80.14,36.78 -125.17,20.38 -45.37,-16.85 -89.29,-52.02 -132.02,-106.74 -42.72,-54.72 -66.53,-106.32 -71.52,-153.98 -5.33,-48.11 11.54,-87.05 49.8,-116.92 38.26,-29.87 80.13,-36.78 125.5,-19.93 45.03,16.4 89.3,52.02 132.02,106.74 42.73,54.73 66.19,105.87 71.52,153.98 4.99,47.66 -11.87,86.6 -50.13,116.47zm-129.7 -301.89l25.83 273.42c18.34,7.88 33.29,10.53 45.57,8.83 12.28,-1.71 22.9,-6.43 32.25,-13.73 24.47,-19.1 32.29,-46.68 23.56,-83.55 -8.28,-37.21 -28.45,-75.89 -60.76,-117.27 -7.29,-9.34 -15.37,-18.79 -24.51,-29.56 -9.12,-10.78 -23.25,-23.37 -41.94,-38.14zm-20.11 244.83l-27.77 -274.05c-14.56,-5.82 -27.93,-8.27 -39.76,-6.9 -12.18,0.9 -23.16,5.19 -33.39,13.17 -27.59,21.54 -35.35,51.95 -22.96,91.68 12.4,39.73 33.36,78.5 62.89,116.32 18.06,23.13 38.54,42.95 60.99,59.78z"/>
  <path id="10" class="fil5" d="M10212.44 11415.58l190.11 269.98c5.31,-18.92 11.6,-36.47 18.26,-51.51 7.13,-15.38 18.08,-34.13 33.65,-56.14l26.64 37.84c-22.69,37.38 -38.63,75.52 -47.02,114.58l-42 29.57 -221.63 -314.75 -84 59.15 -24.7 -35.08 211.37 -148.83 24.7 35.07 -85.38 60.12z"/>
  <path id="11" class="fil5" d="M9941.96 11815.12c0.41,-23.63 5.8,-45.74 15.86,-66.8 10.05,-21.05 24.86,-37.76 44.9,-50.44 18.6,-11.76 39.75,-18.45 62.18,-19.96 22.42,-1.49 43.15,2.77 62.29,14.03 19.63,10.97 35.99,27.34 49.57,48.8 21.72,34.35 29.45,70.86 23.51,110.02 -5.96,39.16 -26.92,70.45 -62.69,93.08 -41.98,26.55 -84.62,28.81 -127.94,6.79 -43.32,-22.03 -82.18,-60.24 -116.57,-114.62 -38.32,-60.59 -55.13,-116.73 -50.44,-168.45 4.21,-51.42 29.3,-92 74.62,-120.66 24.33,-15.39 50.12,-26.36 78.02,-33.99l27.46 43.41c-33.31,4.37 -61.56,13.56 -84.45,28.04 -32.45,20.52 -47.9,50.99 -46.84,91.73 1.36,41.22 16.13,84.64 44.79,129.96l5.73 9.06zm176.33 90.84c11.92,-7.54 21.26,-18.12 28.66,-32.83 7.41,-14.69 9.84,-30.92 7.46,-49.45 -1.9,-18.84 -8.52,-36.69 -19.08,-53.39 -13.88,-21.94 -31.06,-36.45 -51.56,-43.53 -20.2,-6.58 -40.94,-3.48 -62.41,10.09 -21.95,13.89 -34.95,33.46 -38.52,58.42 -3.27,25.45 1.94,49.53 16.72,72.91 14.79,23.38 33.83,38.71 57.02,44.75 23.49,6.52 44.06,4.19 61.71,-6.97z"/>
  <path class="fil6" d="M1419.67 5619.64l-432.6 -103.37 11.94 -49.96 198.73 47.49c-19.64,-19.78 -33.69,-41.12 -42.01,-64.59 -8.33,-23.46 -10.19,-44.8 -5.34,-65.11 4.07,-17.01 12.13,-31.34 24.33,-43.51 12.07,-11.63 24.86,-19.02 38.79,-21.49 10.39,-2.17 21.06,-3.09 31.88,-2.26 10.83,0.85 32.91,5.56 66.41,13.56l167.43 40.01 -11.94 49.96 -173.47 -41.46c-29.1,-6.95 -48.03,-10.32 -58.01,-9.8 -9.99,0.51 -18.45,4.3 -26.19,9.99 -7.75,5.69 -12.46,13.27 -14.56,22.06 -4.19,17.56 -0.42,38.19 11.19,62.45 12.17,24.37 29.1,45.83 50.78,64.36l174.58 41.72 -11.94 49.95z"/>
  <path id="1" class="fil6" d="M1492.25 5077.95c20.69,21.88 33.76,45.66 40.08,70.43 6.32,24.76 7.32,45.62 2.12,63.5 -7.09,24.4 -24.39,43.47 -51.36,57.38 -26.81,13.37 -62.16,13.68 -105.52,1.07 -34.15,-9.92 -63.15,-25.41 -85.93,-46.13 -23.32,-20.89 -39.43,-44.37 -48.68,-71.16 -9.42,-26.25 -9.14,-55.56 0.32,-88.08 2.67,-9.21 7.85,-22.99 15,-41.48 1.33,-2.56 2.98,-6.2 5.25,-12.01l14.33 -49.31 208.68 60.64c35.23,10.24 65.6,14.95 90.02,13.82l-14.96 51.49c-17.36,-0.93 -40.54,-4.13 -69.35,-10.16zm-57.99 -16.86l-126.83 -36.86c-9.92,15.94 -16.82,31.56 -21.23,46.74 -8.82,30.35 -4.29,59.29 13.18,86.12 17.48,26.83 46.47,46.42 87.12,58.23 29.27,8.51 53.07,9.55 71.01,2.42 17.78,-6.58 29,-16.85 33.25,-31.49 4.41,-15.17 1.71,-34.18 -8.66,-57.18 -10.21,-23.53 -26.08,-45.78 -47.84,-67.98zm-215.63 -65.01l-13.07 44.98 -112.5 65.48 16.7 -57.46 108.87 -53z"/>
  <path id="2" class="fil6" d="M1599.11 4966.53l-285.81 -113.77 18.99 -47.72 62.41 24.85c-16.6,-22.41 -27.43,-45.55 -32.29,-69.97 -4.87,-24.41 -3.65,-45.79 4.08,-65.2 6.68,-16.78 17.45,-30.11 32,-40.72 14.56,-10.61 30.37,-15.25 46.62,-14.86 16.98,0.08 46.35,8.73 88.82,25.64l159.95 63.67 -19 47.72 -165.71 -65.97c-27.8,-11.06 -46.05,-17.11 -56,-18.03 -9.96,-0.94 -18.87,1.6 -27.36,6.12 -8.48,4.52 -14.23,11.34 -17.57,19.73 -6.68,16.78 -5.91,37.74 2.1,63.41 8.54,25.88 22.2,49.55 41,71l166.76 66.38 -18.99 47.72z"/>
  <path id="3" class="fil6" d="M1722.36 4651.04l-404.92 -184.02 21.25 -46.76 186.02 84.54c-15.51,-23.17 -25.23,-46.8 -28.92,-71.43 -3.7,-24.61 -1.46,-45.91 7.19,-64.93 7.23,-15.92 17.88,-28.45 32.18,-38.06 14.06,-9.12 28.03,-13.94 42.18,-13.7 10.61,-0.14 21.26,0.98 31.72,3.87 10.47,2.9 31.25,11.73 62.6,25.98l156.72 71.23 -21.25 46.75 -162.37 -73.79c-27.24,-12.38 -45.18,-19.29 -55.08,-20.69 -9.9,-1.41 -18.92,0.7 -27.62,4.81 -8.68,4.11 -14.75,10.65 -18.49,18.87 -7.47,16.44 -7.7,37.42 -0.93,63.44 7.29,26.25 19.81,50.55 37.56,72.87l163.41 74.27 -21.25 46.75z"/>
  <path id="4" class="fil6" d="M2139.59 3814.75c-3.29,26.1 -6.63,44.37 -10.51,54.5 -3.88,10.15 -8.24,20 -13.31,28.81 -10.69,18.6 -23.97,33.75 -40.03,44.69 -16.35,11.43 -33.38,17.27 -52.07,16.94 -18.69,-0.34 -42.47,-8.8 -71.83,-25.69l-107.15 -61.63 -38.27 66.54 -37.19 -21.39 38.27 -66.54 -107.64 -61.92 25.61 -44.53 107.65 61.92 68.39 -118.89 37.18 21.39 -68.39 118.89 106.67 61.35c21.52,12.38 38.1,18.66 50,18.35 11.62,0.17 21.92,-3.01 31.11,-8.8 8.7,-6.08 16.56,-15.22 23.32,-26.96 12.38,-21.53 18.48,-47.97 19.06,-79.55l39.13 22.52z"/>
  <path id="5" class="fil6" d="M2243.17 3681.17l-216.3 -153.6 -49.68 69.96 -34.51 -24.51 79.09 -111.38 215.83 153.27 49.67 -69.95 34.98 24.84 -79.08 111.37zm-346.7 -235.12c-9.67,-6.87 -14.28,-14.99 -14.32,-24.7 -0.02,-9.71 1.92,-17.33 6.17,-23.31 4.25,-5.98 10.8,-10.33 19.98,-13.5 9.18,-3.18 18.37,-1.5 28.04,5.36 9.19,6.54 13.81,14.66 13.84,24.38 0.02,9.71 -1.93,17.32 -6.17,23.3 -4.25,5.99 -10.8,10.34 -19.97,13.51 -9.18,3.17 -18.38,1.49 -27.57,-5.04z"/>
  <path id="6" class="fil6" d="M2387.72 3474.31l-242 -189.92 31.71 -40.4 52.84 41.47c-9.59,-26.19 -13.44,-51.44 -11.2,-76.24 2.23,-24.79 9.45,-44.96 22.35,-61.39 11.15,-14.21 25.25,-23.95 42.21,-30.02 16.96,-6.06 33.44,-6.04 48.91,-1.06 16.27,4.87 41.99,21.47 77.96,49.7l135.42 106.28 -31.71 40.4 -140.31 -110.11c-23.53,-18.48 -39.33,-29.43 -48.61,-33.14 -9.3,-3.71 -18.56,-3.79 -27.97,-1.85 -9.42,1.93 -16.86,6.85 -22.44,13.96 -11.15,14.2 -16.33,34.53 -15.91,61.41 0.87,27.23 7.29,53.8 19.26,79.69l141.19 110.82 -31.7 40.4z"/>
  <path id="7" class="fil6" d="M2597.85 3208.76l-336.31 -291.08 33.61 -38.83 154.5 133.72c-8.32,-26.62 -10.96,-52.03 -7.53,-76.69 3.42,-24.66 11.6,-44.45 25.27,-60.25 11.45,-13.22 25.2,-22.22 41.64,-27.4 16.07,-4.77 30.82,-5.43 44.33,-1.2 10.21,2.86 20.11,6.96 29.33,12.69 9.22,5.74 26.65,20.09 52.69,42.63l130.16 112.66 -33.61 38.83 -134.86 -116.72c-22.62,-19.58 -37.87,-31.29 -46.97,-35.43 -9.1,-4.15 -18.35,-4.68 -27.85,-3.2 -9.49,1.48 -17.17,6.04 -23.08,12.87 -11.82,13.65 -17.97,33.71 -18.84,60.58 -0.43,27.24 4.7,54.09 15.41,80.52l135.72 117.47 -33.61 38.83z"/>
  <path id="8" class="fil6" d="M3058.65 2712.39l-290.53 -336.78 38.88 -33.55 133.48 154.72c-4.38,-27.55 -3.3,-53.07 3.67,-76.97 6.96,-23.9 17.92,-42.3 33.74,-55.95 13.24,-11.42 28.16,-18.34 45.17,-21.07 16.59,-2.39 31.29,-0.91 44.04,5.23 9.69,4.32 18.89,9.81 27.18,16.81 8.28,7.02 23.45,23.75 45.95,49.82l112.45 130.35 -38.89 33.55 -116.51 -135.05c-19.54,-22.65 -32.93,-36.45 -41.33,-41.87 -8.41,-5.42 -17.48,-7.29 -27.09,-7.2 -9.61,0.09 -17.87,3.49 -24.7,9.39 -13.68,11.79 -22.68,30.74 -27.43,57.21 -4.38,26.89 -3.2,54.19 3.57,81.9l117.24 135.91 -38.89 33.55z"/>
  <path id="9" class="fil6" d="M3381.78 2436.37l-163.24 -209.12 -67.64 52.8 -26.04 -33.37 107.67 -84.05 162.9 208.66 67.62 -52.79 26.4 33.82 -107.67 84.05zm-264.83 -324.57c-7.3,-9.35 -9.39,-18.45 -6.64,-27.77 2.76,-9.3 6.8,-16.05 12.59,-20.57 5.77,-4.51 13.3,-6.79 23,-7.21 9.71,-0.41 18.03,3.83 25.33,13.17 6.94,8.9 9.04,18 6.28,27.32 -2.76,9.31 -6.81,16.05 -12.59,20.56 -5.78,4.52 -13.3,6.81 -23,7.23 -9.7,0.4 -18.03,-3.84 -24.97,-12.73z"/>
  <path id="10" class="fil6" d="M3778.61 2118.08c-22.32,39.88 -48.17,69.82 -78.17,90.94 -22.61,15.92 -46.82,24.69 -72.94,25.83 -26.12,1.14 -51.8,-4.95 -77.04,-18.24 -25.24,-13.29 -46.7,-32.01 -63.28,-55.54 -16.25,-23.08 -26.77,-48.8 -31.1,-77.5 -4.8,-28.39 -2.19,-55.08 7.68,-79.28 10.01,-25 26.09,-45.3 48.7,-61.22 30,-21.13 61.47,-27.41 94.74,-18.4 32.95,8.55 65.25,34.83 96.78,79.59l6.17 8.77 -173.52 122.19c12.35,17.54 27.42,31.09 44.88,40.2 16.99,9.42 34.49,13.68 51.36,12.15 16.87,-1.53 32.86,-7.26 48.09,-17.98 27.23,-19.18 50.58,-48.75 70.68,-89.82l26.97 38.31zm-261.31 -16.19l125.06 -88.07 -4.22 -6c-14.62,-20.76 -31.07,-33.35 -49.22,-38.52 -18.93,-5.31 -36.52,-1.88 -53.6,10.14 -17.07,12.03 -27.16,28.09 -30.85,49.33 -3.68,21.24 1.01,45.55 12.83,73.12zm-58.86 -213.97l-4.74 59.93 -35.07 24.7 0.94 -110.42 28.15 -19.82 103.82 36.65 -35.08 24.7 -58.02 -15.74zm132.65 -103.78l-38.3 26.98 -128.74 -19.11 48.45 -34.12 118.59 26.25z"/>
  <path id="11" class="fil6" d="M3860.44 2090.36l-164.43 -259.99 43.4 -27.45 35.91 56.77c-0.27,-27.89 4.56,-52.97 14.97,-75.59 10.41,-22.61 23.96,-39.2 41.62,-50.36 15.26,-9.66 31.81,-14.11 49.82,-14.15 18.01,-0.04 33.53,5.5 46.45,15.37 13.69,10.04 32.37,34.29 56.81,72.93l92.02 145.5 -43.41 27.45 -95.34 -150.74c-15.99,-25.29 -27.2,-40.9 -34.71,-47.5 -7.52,-6.61 -16.22,-9.79 -25.74,-11.11 -9.51,-1.34 -18.18,0.81 -25.81,5.64 -15.26,9.65 -26.96,27.07 -35.56,52.54 -8.29,25.95 -11.14,53.13 -8.54,81.54l95.94 151.7 -43.4 27.45z"/>
  <path id="12" class="fil6" d="M4523.86 1721.4l-161.54 -367.98 -84.25 36.98 -17.25 -39.28 131.28 -57.63 161.54 367.98 87.86 -38.57 17.24 39.28 -134.88 59.22z"/>
  <path id="13" class="fil6" d="M4922.31 1480.68c-5.02,29.69 -16.14,54.45 -32.11,74.4 -15.97,19.96 -32.03,33.31 -49.44,39.93 -23.74,9.02 -49.38,6.68 -76.73,-6.48 -26.81,-13.36 -48.34,-41.4 -64.38,-83.62 -12.63,-33.24 -17.72,-65.72 -14.89,-96.38 2.65,-31.2 11.71,-58.19 27.53,-81.71 15.29,-23.32 38.86,-40.74 70.52,-52.77 8.97,-3.4 23.09,-7.56 42.16,-12.99 2.84,-0.48 6.74,-1.35 12.74,-3.03l48.01 -18.25 77.19 203.14c13.03,34.3 27.55,61.39 43.15,80.22l-50.12 19.04c-9.71,-14.42 -21.1,-34.86 -33.63,-61.5zm-21.45 -56.45l-46.91 -123.46c-18.7,1.67 -35.32,5.57 -50.09,11.18 -29.55,11.23 -49.94,32.26 -60.84,62.36 -10.91,30.11 -9.1,65.05 5.94,104.63 10.83,28.49 24.32,48.12 40.81,58.15 15.96,10.24 30.91,13.01 45.16,7.6 14.77,-5.61 28.32,-19.22 40.45,-41.33 12.64,-22.32 20.86,-48.39 25.48,-79.13zm-77.89 -211.32l-43.78 16.64 -120 -50.42 55.93 -21.25 107.85 55.03z"/>
  <path id="14" class="fil6" d="M5075.16 1498.52l-94.59 -292.72 48.87 -15.79 20.66 63.92c6.68,-27.08 17.59,-50.18 33.31,-69.49 15.7,-19.32 32.95,-32.01 52.83,-38.43 17.18,-5.55 34.32,-5.75 51.77,-1.31 17.46,4.45 31.12,13.67 41.17,26.44 10.77,13.13 22.83,41.27 36.88,84.78l52.94 163.81 -48.87 15.79 -54.85 -169.72c-9.2,-28.47 -16.17,-46.38 -21.81,-54.64 -5.63,-8.27 -13.26,-13.52 -22.16,-17.17 -8.88,-3.65 -17.81,-3.73 -26.4,-0.96 -17.19,5.56 -32.84,19.52 -47.51,42.05 -14.49,23.07 -24.02,48.69 -28.56,76.85l55.19 170.8 -48.87 15.79z"/>
  <path id="15" class="fil6" d="M5398.56 1398.24l-115.2 -429.6 49.61 -13.31 52.92 197.36c8.04,-26.7 20.11,-49.22 36.77,-67.71 16.66,-18.5 34.54,-30.3 54.71,-35.71 16.9,-4.53 33.33,-4.27 49.85,0.66 15.97,5.07 28.56,12.79 37.37,23.87 6.85,8.1 12.75,17.04 17.17,26.95 4.41,9.93 10.8,31.58 19.72,64.84l44.58 166.28 -49.61 13.3 -46.19 -172.27c-7.75,-28.9 -13.81,-47.14 -19.02,-55.68 -5.21,-8.54 -12.57,-14.16 -21.26,-18.26 -8.69,-4.1 -17.6,-4.63 -26.33,-2.29 -17.44,4.68 -33.78,17.83 -49.57,39.59 -15.64,22.31 -26.45,47.42 -32.4,75.31l46.48 173.37 -49.6 13.3z"/>
 </g>
</svg>
